<svg xmlns="http://www.w3.org/2000/svg" width="500" height="500">
  <path fill="#104D46" d="M249.2 110.6A108.2 108.2 0 0 1 292 80.1l2.3-.8 2.3-.8 2.3-.7 2.4-.7 2.3-.6 2.4-.6 2.4-.5 2.3-.4 2.5-.4 2.4-.3 2.4-.3 2.4-.2 2.4-.1 2.5-.1H332.4l2.5.2 2.4.2 2.4.3 2.4.3 2.4.4 2.4.5 2.4.5 2.4.5 2.3.6 2.3.7 2.4.7 2.3.8 2.2.9 2.3.9 2.2.9 3.1 1.4 3 1.6 3 1.6 3 1.7 3 1.7 2.8 1.9 2.8 1.9 2.8 2 2.7 2 2.6 2.2 2.6 2.2 2.5 2.3 2.5 2.4 2.4 2.4 2.3 2.5 2.3 2.5 2.1 2.6 2.2 2.7 2 2.7 2 2.8 1.9 2.8q1 1.4 1.8 2.9l1.7 3 1.7 2.9 1.6 3 1.5 3 1.4 3.2 1.3 3 1.3 3.3 1.1 3.2 1 3.2q.6 1.6 1 3.3 2.3 7.5 3.6 15.3c.4 2.3 1 10 1.7 11.6l.2.3c.5.6.8 1.2.8 2s-.4 1.4-.9 2c0 6.4 0 12.7-.6 19.2l-.6 4.4-.7 4.4q-.4 2.2-1 4.3l-1 4.4-1.1 4.3-1.4 4.2-1.5 4.2-1.6 4.2-1.8 4-2 4-2 4q-1 2-2.2 3.9l-2.4 3.8-2.5 3.6q-1.2 1.9-2.6 3.7l-2.7 3.5c-5.4 6.5-11.6 12.2-17.4 18.3l-28.7 29.2-49.7 50c-13.5 13.5-27.2 26.8-40.5 40.4L260 433.6c-3.3 3.4-7 6.6-10 10.4-6-7-12.8-13.6-19.4-20.3L206 399c-9-8.7-17.4-18.1-26.4-26.8-3.1-2.5-6-5.7-8.9-8.6l-16.7-17-49.3-49.6c-7-7-14.4-14-20.6-21.8l-1.6-2L81 271l-1.5-2.1-1.5-2.2-1.4-2.1-1.3-2.2L74 260l-1.3-2.2-1.2-2.3-1.2-2.3-1.1-2.3-1-2.4-1.1-2.4-1-2.4-1-2.4-.8-2.4-.8-2.5-.8-2.4-.7-2.5-.7-2.5-.6-2.5-.6-2.5-.5-2.6-.4-2.5-.4-2.6-.4-2.5-.3-2.6-.2-2.6-.2-2.6-.2-2.5V201l-.1-2.6c.1-35 13.6-65.6 38.4-90.1l1.8-1.9 2-1.7q.9-1 1.9-1.8l2-1.7 2-1.6 2.1-1.6 2.1-1.5L112 95l2.2-1.5 2.2-1.3 2.3-1.4 2.3-1.2 2.3-1.2 2.4-1.2 2.3-1 2.4-1 2.5-1 2.4-1 2.5-.8 2.5-.8 2.5-.7 2.6-.7 2.5-.6 2.6-.5 2.6-.5 2.6-.4 2.6-.3 2.6-.3 2.6-.2 2.6-.1h2.6l2.6-.1c29 .1 57.6 12.9 78 33.4Z"/>
  <path fill="#FDFDFD" d="M183.3 363.5c-4.6-4.2-8.8-8.9-13.2-13.3L137 317l-27-27.2c-6.5-6.5-13.5-12.9-19-20.1l-3-4-2.7-4-2.6-4.3L80 253l-2.2-4.4-2-4.5-2-4.6-1.6-4.6-.8-2.7-.9-2.6-.7-2.7-.7-2.8-.6-2.7-.5-2.7-.5-2.8-.4-2.8-.4-2.7-.2-2.8-.2-2.8-.2-2.8V193.6l.2-2.8.2-2.8.3-2.8.3-2.7.4-2.8.5-2.8.6-2.7q.2-1.4.6-2.7l.6-2.7.8-2.7.8-2.7.9-2.7 1-2.6 1-2.6 1-2.6 1.2-2.5 1.2-2.6c13.1-27 36-47.7 64.4-57.4 21.5-7.3 48-4.3 68.6 4.6 6.5 2.9 12.9 6.7 18.8 10.6 3.4 2.3 6.5 5 9.6 7.8 2.2 2 4.6 4.9 7.4 6.2l.4.1.4.2h.4l.4.2h2.4l.4-.1.4-.1.3-.2.4-.1.4-.2.3-.2c3-1.9 6-6.4 8.8-8.9 10.7-10 23-18.2 37-23 23.6-8 48.7-5.1 71 5.7a115 115 0 0 1 56.9 67.4c-8 5.7-15.7 12.3-23.4 18.5l.5.7c-1.4 1-3 1.5-4.6 2-3 .6-13 1.6-15.7.7-2.5-3-5.9-5.9-8.9-8.4-13.9-11.8-32.9-23.4-51.1-26-.9-4.3-1.9-8.5-3.5-12.6-3.9-10-12-19-21.9-23.3a35.8 35.8 0 0 0-27.2-.6 43 43 0 0 0-22 23.2c-31.5-3.1-68.7 10-93.9 28.4a150.6 150.6 0 0 0-56.7 75c-2.8 8.8-4.3 17.8-5.7 26.9 3.2 4.1 7.3 8 11 11.6l11.5 11.6 44 44.5 15.6 15.9c3.9 3.8 8 7.6 11.3 11.9l-2.5 3Z"/>
  <path fill="#E5A313" d="M145.3 120.3c3.4-1 6.6-2.3 9.6-4.2 5.7-3.6 14.1-11 20.4-12.7 3.2-.8 6.4-.4 9.3 1.1 3.3 1.9 6.2 5.3 7.2 9 1 3.9 0 8-2 11.4l-1.7 2.4-1.7 2.2-2 2q-1 1.1-2.1 2a96 96 0 0 1-33.8 16c-5.4 1.3-11.8 2-16.8-1-2.8-1.8-5-4.6-5.9-7.8-.8-3.4-.1-7.3 1.8-10.2 2-3 5.2-5 8.4-6.7 2.8-1.6 6.2-2.4 9.3-3.5Z"/>
  <path fill="#E5A313" d="M136 123.8c2.8-1.6 6.2-2.4 9.3-3.5.3.8.3 1 .2 1.7-.4.5-.8.8-1.4.8-1 .2-2 0-3 .3-1.6.4-2.6 3-4.5 1.4l-.6-.7Z"/>
  <path fill="#E4C159" d="M152.1 128c.4-.8.5-1.2 1.2-1.7.8.4 1 1.3 1.4 2.2.6 1.5 1 4 .2 5.5l-.4.6c-.5 0-.5.2-.9-.1-1-.7-1.3-2-1.6-3.1-.2-1.3-.1-2.2.1-3.5Z"/>
  <path fill="#E8DBA1" d="M152.1 128c.4-.8.5-1.2 1.2-1.7.8.4 1 1.3 1.4 2.2l-.3.4h-1l-1.3-1Z"/>
  <path fill="#C1B061" d="m152.1 128 1.3.9c-.3 1-.4 1.8-1.3 2.4h-.1c-.2-1.2-.1-2.1.1-3.4ZM163.3 118a6 6 0 0 1 1.9 2.3 8.7 8.7 0 0 1 .6 7.1c-.8-.3-1.4-1.2-1.8-2a9.5 9.5 0 0 1-.7-7.3Z"/>
  <path fill="#E4C159" d="M141.3 129.5c.7.7 1 1.4 1.1 2.3.4 1.6.6 3.2-.3 4.6-.6-.6-1.1-1-1.4-1.8-.7-1.8 0-3.4.6-5.1ZM176.5 114.2l-.4-1.5c0-.7 0-1.3.4-2 .8.3 1 .8 1.5 1.4.6 1.2.8 2 .4 3.3l-.4.5c-.6-.2-.7-.3-1-.9l-.5-.8Z"/>
  <path fill="#E8DBA1" d="m176.5 114.2-.4-1.5c0-.7 0-1.3.4-2 .8.3 1 .8 1.5 1.4l-1.5 2Z"/>
  <path fill="#E4C159" d="M175 121.7h.3c.8.2 1.2.7 1.5 1.4l.2.4.1.4v.4l.1.4v.8l-.1.4-.1.4c-.4 0-.5 0-.7-.3-1.2-1-1.4-3-1.4-4.3ZM153.9 118c.6.2 1.5.5 2 .9.4.2.2.2.3.6l-.7.8-1-.1c-.8-.2-1.3-.4-1.7-1.1.2-.7.5-.7 1-1.1Z"/>
  <path fill="#C1B061" d="M170 107c0 .7-.1 2-.6 2.6-.5.6-1 .5-1.8.5-.1-.4-.2-.3-.1-.7.2-1.1 1.6-1.9 2.4-2.5Z"/>
  <path fill="#E4C159" d="m146.7 121.4.8.2c.4.4.8.7 1 1.3.3.6.3.5 0 1h-.6c-.7-.1-1.2-.3-1.7-.9 0-.8 0-.9.5-1.6Z"/>
  <path fill="#E5A313" d="M86.2 172c8.5 6 17.2 13 19 23.9 1.2 6.4 0 13-1.9 19.1-.4 1.6-1 3.3-1.8 4.6h-.5c-8-4.3-14.6-9.4-18.2-18a30 30 0 0 1-.3-21c1-3 2.5-5.7 3.7-8.6Z"/>
  <path fill="#FDFDFD" d="M84.4 182.7c1.1 1 2 2.4 3 3.6a39.6 39.6 0 0 1 4.6 11.2c.9 2.7 2.1 5.3 3 8-3-2-6.8-4.3-9.2-7-.2-.1-.4-.4-.4-.7-.2-.4 0-.7-.2-1.2-.9-2-1.1-4-1.3-6.1l-.2-.3c-.2-.6 0-1 .3-1.6-.4-2 .1-4 .4-5.9Z"/>
  <path fill="#FDFDFD" d="M84.4 182.7c1.1 1 2 2.4 3 3.6 1.9 3 2.9 6 4 9.4-.4-.2-.3 0-.6-.3-2-1.8-5.7-4.4-6.8-6.8-.4-2 .1-4 .4-5.9Z"/>
  <path fill="#E4C159" d="M84 188.6c1.1 2.4 4.9 5 6.8 6.8l.6.3c.4.6.5 1 .6 1.8-1-.9-2.2-1.5-3.3-2.4-1.7-1.4-3.1-3-4.6-4.7l-.2.1-.2-.3c-.2-.6 0-1 .3-1.6Z"/>
  <path fill="#FDFDFD" d="m91.4 178.6 2.7 3c.5.4.7.5 1 1l1.6 2.6c.6.8 1.1 1.8 1.8 2.5.4 1.2.4 1.6 0 2.8l-.8 2.1c-.8 2.6-2.2 5.6-2.4 8.3-1.5-2-2.4-6.3-3.4-8.7a22 22 0 0 1-.5-13.5Z"/>
  <path fill="#FDFDFD" d="m91.4 178.6 2.7 3c-.5 2.8-1 6.8-2.7 9.1a22 22 0 0 1 0-12Z"/>
  <path fill="#E4C159" d="M94.1 181.6c.5.4.7.5 1 1l-.1.4c-1 3.1-1.5 6.3-3 9.2-.4-.5-.5-1-.6-1.5 1.6-2.3 2.2-6.3 2.7-9Z"/>
  <path fill="#EDE9D8" d="M96.7 185.2c.6.8 1.1 1.8 1.8 2.5-.3.8-.3 1.4-1 1.8-.3 0-.6-.2-1-.4.3-1.2.2-2.6.2-4Z"/>
  <path fill="#E8DBA1" d="M98.5 187.7c.4 1.2.4 1.6 0 2.8l-.8 2.1c-.3-1.2-1-2.2-1.1-3.5l1 .4c.6-.4.6-1 .9-1.8Z"/>
  <path fill="#FDFDFD" d="M86 200a97 97 0 0 1 11.2 9.6c1.4 2.1 1.9 4.6 3.2 6.7.1.5.2.7 0 1.1h-.2c-1-.6-2.1-1.9-3-2.7A36.5 36.5 0 0 1 86 200ZM99.1 191.7l.6-.6c1 .8 1.5 4.5 1.7 5.9.7 5.5-1.2 6.5-3.2 11-.2.1-.3 0-.4 0-.8-1.8-2.1-4.2-2-6 1.3-2 3.3-8 3.3-10.3ZM98.6 209c1.6-2 2.6-4.3 3.7-6.6-.3 4.2-.5 8.8-1.5 13l-.1-.2c-.7-1-2.4-5-2.1-6.2ZM86.5 176.5c.7 3.6 2 7.5 2.3 11.2l-1.2-1.6c-.7-1.6-1.9-3-3.1-4.3.4-2 1-3.6 2-5.3ZM87 175.5v-.7l.3-.2 2.4 2.6c1 2.3.3 4.5 0 6.9-1-2.8-2.2-5.7-2.8-8.6Z"/>
  <path fill="#425F23" d="M346.2 104.7c1.2.6 2.2 1.3 3.1 2.3 5 5 4.5 11.3 4.5 18 3.8 3 7.1 6.4 10.5 9.9-2.1-5.2-4.5-10-3.3-15.8.1-1.2.7-2.1 1.4-3.1l1 .6a17.5 17.5 0 0 1 4.6 17.2l-.7 4c1.7 2 6.5 8.8 6.1 11.4 0 .4-.5.5-.8.7h-.4c-2.1-3.5-3.6-7.4-6.6-10.3-1.6.8-3 2-4.7 2.6l-1.7.7c-3.4.8-7.6-.1-10.6-1.8l-.5-.2-.2-.3-.4-.4v-.5c.5-.5 1-.8 1.5-1.1 5.9-3.3 9.9-2.1 15.9-.4-1.6-1.6-5-5.7-6.8-6.6-.7-.3-1 0-1.6.2a13.5 13.5 0 0 1-10.6 3.5 20 20 0 0 1-7.2-1.7c-.4-.4-.3-.1-.3-.8a7 7 0 0 1 3.3-2.8c4-2 7.8-2.1 12-.8.8.2 1.7.5 2.5.3-2.6-2.3-6.9-6.6-10.4-7.3-.7-.1-1 .1-1.6.5a13 13 0 0 1-9.7 4.6c-2.6.2-4.9-.2-7-1.7l-.4-.7c.5-1 1.9-1.9 2.8-2.4 5.6-3.3 9-2.9 15-1.4h.8l1 .2.2-.3-.2-1c1.2.8 2.3 1.8 3.4 2.7-1.1-1.8-2.4-3.4-3.3-5.3-2-4-2.1-8.5-.6-12.7Z"/>
  <path fill="#5B8F4E" d="M361 119.1c.1-1.2.7-2.1 1.4-3.1l1 .6a17.5 17.5 0 0 1 4.6 17.2l-1.2.5-.6.9.1 1.3c-3.6-4.3-5.1-12-5.3-17.4Z"/>
  <path fill="#5D812D" d="M366.2 130.3c-.7-3-3.8-11-2.8-13.7a17.5 17.5 0 0 1 4.6 17.2l-1.2.5-.6.9a11 11 0 0 1-.9-2.4l.3-.6c.1-.7.3-1.3.6-2Z"/>
  <path fill="#425F23" d="M366.2 130.3c.4 1.4.5 2.6.6 4l-.6.9a11 11 0 0 1-.9-2.4l.3-.6c.1-.7.3-1.3.6-2Z"/>
  <path fill="#294818" d="m362.4 116 1 .6c-1 2.6 2.1 10.6 2.8 13.7-.3.6-.5 1.2-.6 1.9l-.3.6c-1.5-5.4-2-11.3-2.9-16.8Z"/>
  <path fill="#5B8F4E" d="M338.7 133.6c-.4-.4-.3-.1-.3-.8a7 7 0 0 1 3.3-2.8c4-2 7.8-2.1 12-.8.8.2 1.7.5 2.5.3.5.3.9.5 1.1 1.1-1.8.3-3.7.2-5.6.3-2.1.2-4.2.5-6.4.6-1.6.2-3 .6-4.5 1.2 2 .4 5.2-.5 7.3-.7 2.8-.4 5.6-.5 8.4-.2a13.5 13.5 0 0 1-10.6 3.5 20 20 0 0 1-7.2-1.7Z"/>
  <path fill="#425F23" d="M338.7 133.6c-.4-.4-.3-.1-.3-.8a7 7 0 0 1 3.3-2.8c4-2 7.8-2.1 12-.8-.9.6-3.4 0-4.6 0-3.3 0-6.9.5-9.4 3l-.7 1-.3.4Z"/>
  <path fill="#5B8F4E" d="m327.6 125.6-.5-.7c.5-1 1.9-1.9 2.8-2.4 5.6-3.3 9-2.9 15-1.4-3.8 2.1-11.7 2.2-16 4.3 2.5.9 11.2-3 15.3-2.7a13 13 0 0 1-9.7 4.6c-2.6.2-4.9-.2-7-1.7ZM347.9 140.6c.4-1.1 1.5-1.7 2.5-2.2 4.2-2 10-1.2 14.2.3l.6.2c-4.5 0-13 .1-17.1 2l-.2-.3ZM350.4 140.8c5.9 1.5 7.4-.8 12-.5l-.1.4-.2.3v.2c-.6.3-1 .4-1.2 1l-1.7.7c-3.4.8-7.6-.1-10.6-1.8l1.8-.3Z"/>
  <path fill="#5D812D" d="M350.4 140.8c3.2-.8 9.5-1.2 12.8-1l.1.3c-.4.5-.8.8-1.3 1v-.1l.3-.3v-.5h.2c-4.7-.2-6.2 2-12.1.6Z"/>
  <path fill="#5B8F4E" d="M346 112.1a12 12 0 0 1 .5-6.5h.4a4 4 0 0 1 1.7 1c2.1 2.4 4.6 6.7 4.8 10 .1 2-.2 4.2-.3 6.2-1.9-4.2-2.9-9-5.1-13 0-.5-.4-1.8-.8-2.3l-.2-.2c-1.1 1.4.3 3.8-1 4.8Z"/>
  <path fill="#5D812D" d="M346 112.1c1.3-1-.1-3.4 1-4.8l.2.2c.4.5.8 1.8.8 2.4-.4 3.3 2.8 6.9 3.2 10.2.5 1.2 1.1 2.5 1.2 3.8l-.2.1c-.7-.4-1.1-.9-1.6-1.6-.3-.8-1-1.5-1.5-2.3a17.6 17.6 0 0 1-3.1-8Z"/>
  <path fill="#5B8F4E" d="M350.6 122.4c.1-.8.2-1.6.6-2.3.5 1.2 1.1 2.5 1.2 3.8l-.2.1c-.7-.4-1.1-.9-1.6-1.6Z"/>
  <path fill="#2A3118" d="M112 127c.8 5.1.4 9-1.7 13.8-.7 1.6-1.5 3.2-2 5-.5 2.3.1 4.9-.2 7.3.3-.4.3-.3.4-.7.8-2.3 1.7-4.9 3-7 1.7-2.5 4.1-3.3 7-4-1 3.4-2.3 6.2-4.2 9.2-1.4 2.3-3.2 3-5.6 4-1.3 3.5 1 14.4 2.2 18l.5 1.5c.4-.8.5-1.8.8-2.6.4-1.4 1-2.9 1.7-4.2 2.1-4 5.6-5.2 9.7-6.4-.8 3-2.6 5.8-4.4 8.3 0 .6 0 .8-.4 1.2l.1.4c2-1.5 4.2-3 6.6-3.9.7-.2 1.2-.3 1.8 0 .2.4.3.6.1 1-.4 1.5-1.6 3-2.5 4.1a32.7 32.7 0 0 1-11.2 10c1 2.3 1.8 4.6 2.5 7-1.2-1.8-2.2-3.8-3.2-5.8-1.7-.3-3.7-.5-5-1.7-.4-.4-.6-.7-.6-1.3l.4-.3c1.6-.3 2.7.1 4.1.8-.6-1.5-1.1-4.9-2.3-5.8-.8.2-1.6.4-2.4.3-2.7-.4-5.9-3.7-7.2-5.9-.8-1.1-1.3-2-1-3.5l.6-.2-.6.1 4.3 1.9c2.2 1.2 4.1 3 5.9 5-.5-2-.9-6.3-2.3-7.5-1-.1-1.9-.7-2.7-1.2-.5-.2-1-.4-1.3-.7-4.1-2.7-5.9-7.6-6.8-12.1 6.1 1.8 8 5.9 11.3 10.8-.4-2.2-.9-4.6-.6-6.8a29.7 29.7 0 0 1-5.9-8.1c-.8-2-1.9-6-1-8h.4l.6.5c2.7 2.5 4.6 6 6.1 9.3.6-8-2.6-15.2 4.6-21.5l.3-.3Z"/>
  <path fill="#294818" d="M111.4 174.1c.4-.8.5-1.8.8-2.6.4-1.4 1-2.9 1.7-4.2 2.1-4 5.6-5.2 9.7-6.4-.8 3-2.6 5.8-4.4 8.3l-.2.2c-2.3 2.1-4 5-7.3 5.7l-.3-1Z"/>
  <path fill="#425F23" d="M106.8 155a29.7 29.7 0 0 1-5.9-8c-.8-2-1.9-6-1-8h.4l.6.5-.1.5a18.2 18.2 0 0 1 3.7 5.5l.7 1.6c1.2 2 2 4.1 1.6 6.4l.4 1.2-.4.4Z"/>
  <path fill="#32431C" d="M103.1 147c.9-.2 1.2.3 2.1.1 1.2 2 2 4.1 1.6 6.4-1.6-1.8-2.6-4.3-3.7-6.5Z"/>
  <path fill="#294818" d="M103.1 147c-1-.7-2.3-5.1-2.7-6.5 1 1 2.8 4.6 4 5l.8 1.6c-.9.2-1.2-.3-2-.1Z"/>
  <path fill="#425F23" d="m104.2 164-.3-.5c-1.5-1.8-3.5-3.2-4.8-5.2l-1-2.6c-.5-.8-1.3-1.7-1.4-2.7l.1-.6c.5-.2.6-.2 1 0 3 1.1 7 5.9 8.3 8.8v.2c-.6-.1-4-5-5.5-6 0 .4 1.2 1.9 1.6 2.3 1.7 2.3 3.3 4.9 5.5 6.7v.4l-.8.3c-1-.1-1.9-.7-2.7-1.2Z"/>
  <path fill="#858732" d="M108.7 154.7c0-1 .3-2.4.7-3.2.8-1.6 3.5-5 5.1-5.6-.6 1.4-2 3.2-3.2 4l-1.5 1.3.2.7a26.7 26.7 0 0 0 7-8.3h.2c0 2.5-2.6 4.3-2.9 6.6v.4c-1.4 2.3-3.2 3-5.6 4Z"/>
  <path fill="#EDE9D8" d="M119.2 169.2c0 .6 0 .8-.4 1.2l.1.4a19.2 19.2 0 0 0-4.4 5.8c-.3.7-.7 3.1-1 3.5-1-.6-1-3.8-1.8-5 3.3-.7 5-3.6 7.3-5.7l.2-.2Z"/>
  <path fill="#5D812D" d="M399.2 138c.6.3.7.5 1.1 1 0 1.8-2.7 3.1-4 4.4-1.1 1.2-2.1 2.5-2.1 4.2.8.6 3.9.4 5.5 1.4 1.3.8 2.2 2 2.5 3.5.8 3.6-2 7.9-4 10.8-1.8 2.5-4 5.1-7.4 5.6-1.4.2-2.4-.5-3.6-1.4L385 166c-1.8-.1-3.8 0-5.2-1.3-1.2-1-1.6-2.7-1.7-4.1-.2-4 .9-10.6 3.7-13.7a6.4 6.4 0 0 1 4.4-2.3c2.5 0 4.2 1.3 5.9 2.9 1.3-4 3.5-7 7-9.3ZM205.3 115.5c1-.4 1.6-.7 2.6-.4 1.8.5 2.8 3 4.7 3.5v.4c1.3 0 4.5.6 5.5 0 .7.2 1.5.7 2 1.2 1 1 1.4 2.1 1.4 3.5 0 1.9-.6 3.6-2 5-2 1.8-5 2.6-7.6 2.4-3-.2-6.3-1.5-8.2-3.8a7.7 7.7 0 0 1-1.8-6 8 8 0 0 1 3.4-5.8Z"/>
  <path fill="#425F23" d="M205.3 115.5c1-.4 1.6-.7 2.6-.4 1.8.5 2.8 3 4.7 3.5v.4c-1.2 0-5.8-2.8-7.3-3.5Z"/>
  <path fill="#5B8F4E" d="M331 97.8c.6 0 .8 0 1.3.4 4 2.7 7.8 7.5 9 12.3v.5c.3 2 .5 4 .5 6-1.1 0-2.3-1.2-3-2-1.4-.5-3.6-1-4.7-2v-.6h.8c0-.8-.9-1.4-1.3-2a16.8 16.8 0 0 1-3-7.1c-.3-1.6-.5-4.1.4-5.5Z"/>
  <path fill="#5D812D" d="M331 97.8c.6 0 .8 0 1.3.4-.5.7-.7 1.3-.4 2.2.1.5.3 1.1.7 1.5a71 71 0 0 1 7.8 13.1l-.2-.1c-1-.7-1.3-2.1-2.3-2.8l-.2.2c.1 1 .5 1.9 1 2.8-1.3-.6-3.5-1.1-4.6-2v-.7h.8c0-.8-.9-1.4-1.3-2a16.8 16.8 0 0 1-3-7.1c-.3-1.6-.5-4.1.4-5.5Z"/>
  <path fill="#8BA64D" d="M331 97.8c.6 0 .8 0 1.3.4-.5.7-.7 1.3-.4 2.2.1.5.3 1.1.7 1.5.4 1 .8 5.3.6 6.2l-.3.1-.2-.2c-.8-1-2-5.5-1.8-6.8.2-1 .4-2 .2-3v-.4Z"/>
  <path fill="#5B8F4E" d="M312 104.8c-.6-.7-1.2-1.1-1.2-2l.5-.5c1.6-.9 5-.4 6.6 0a17 17 0 0 1 10 5.6c.2 1.3.3 1.7 1.5 2.4 1.4.8 3.4 1 4.7 2.1v.6c1 1 3.3 1.5 4.6 2 .8.8 2 2 3 2l.2.1c-.3.5-.4.7-.4 1.2l-4-2-.6-.5.2-.7c-3.1-1.5-6.2-2.9-9.3-4.6-1.1.8-2.6.8-4 .7-4.3-.3-9-3.2-11.8-6.4Z"/>
  <path fill="#5D812D" d="M314 104.6c1.5.4 13 5 13.8 5.9-1.1.8-2.6.8-4 .7-4.3-.3-9-3.2-11.8-6.4 1 .1 1.2.3 2-.2Z"/>
  <path fill="#294818" d="m314 104.6-2-1c.5 0 2.1.5 2.7.6h.2c4 1.7 8.1 3.4 12.3 4.8h-.3c.6-.4.7-.4 1-1 .2 1.2.3 1.6 1.5 2.3 1.4.8 3.4 1 4.7 2.1v.6c1 1 3.3 1.5 4.6 2 .8.8 2 2 3 2l.2.1c-.3.5-.4.7-.4 1.2l-4-2-.6-.5.2-.7c-3.1-1.5-6.2-2.9-9.3-4.6-.9-.8-12.3-5.5-13.8-5.9Z"/>
  <path fill="#858732" d="M312 104.8c-.6-.7-1.2-1.1-1.2-2l.5-.5c1.6-.9 5-.4 6.6 0l-.4.2c-.9.3-1.9 0-2.8 0l-.2.5.1.3c.3.6.2.4.3 1h-.2c-.6-.2-2.2-.8-2.7-.6l2 .9c-.8.5-1 .3-2 .2Z"/>
  <path fill="#5B8F4E" d="M316.6 120.1c.8-1 1.7-2.1 2.8-3 3-2.6 6.3-3.1 10.2-2.8 2.3.3 5.3 1.1 7.5.8l-.2.7.6.5c-1.6-.2-3.8-.6-5.4-.2a12.3 12.3 0 0 1-7.6 5.3c-.9.2-2.3.4-3.1 0-1.8 0-3.2-.5-4.8-1.3Z"/>
  <path fill="#32431C" d="M316.6 120.1c.8-1 1.7-2.1 2.8-3 3-2.6 6.3-3.1 10.2-2.8 2.3.3 5.3 1.1 7.5.8l-.2.7.6.5c-1.6-.2-3.8-.6-5.4-.2l-1.5.1-.1-.7c-4.2.9-8 2.1-12 3.7l-.1-.3-.6.8c.3.6.6.7 1.2 1 .8.1 2 0 2.6.6l-.2.1c-1.8 0-3.2-.5-4.8-1.3Z"/>
  <path fill="#8BA64D" d="M326.5 115.1c1.2 0 2.9-.1 4 .4-4.2.9-8 2.1-12 3.7l-.1-.3c2.4-2.3 4.7-3.4 8-3.8Z"/>
  <path fill="#294818" d="M318.4 119.2c4-1.6 7.9-2.8 12-3.7l.2.7c-3.7 1.3-8 2.8-11.9 3.3l-.3-.3Z"/>
  <path fill="#425F23" d="M213 117.4c2.5-3.2 6-6.2 10.2-6.6a8 8 0 0 1 6.2 2l.4.3c-5-.3-9.5-1.3-13.7 2.3-1 .8-1.8 1.9-2.6 3 1.6 0 3 0 4.6.6-1 .6-4.2 0-5.5 0v-1l.4-.6Z"/>
  <path fill="#425F23" d="M212.6 118c-.8-2-2.2-3.7-3-5.8a7 7 0 0 1 .1-5.1c.5-.1.4-.2.7 0 1.6.9 2.3 2.5 2.8 4.1-.3 1.3-.8 2.5-1.2 3.7l1 2.5-.4.6Z"/>
  <path fill="#32431C" d="M341.9 117.1c1.6.6 3.6 1.7 4.8 2.9l.2 1-.1.3-1.1-.2c-1.3-1-2.9-1.8-4.2-2.8 0-.5.1-.7.4-1.2Z"/>
  <path fill="#BF9F80" d="M188.8 338.3c5.8 1.5 14 2.2 20.2 3.1 4.9.7 9.7 1.6 14.4 2.5 3.9.8 7.8 1.4 11.6 2l.1-.6 8.1 1c1 .3 2 .5 3 .5l1 .8.5-.2c2.6-1.6 10-2.3 13.3-3v.7c-4.2.8-8.6 1.9-13 2.4.4 4.1.3 8.3.4 12.4l.8 28.6c.2 6 0 12.3.5 18.4l4-.8c.7.6 1 .6 1.8.7-1.9.4-3.7 1-5.7 1-4.5.2-13.3-1.7-17.6-3.2-2.1-.2-4.4-.8-6.4-1.4-3-1.5-7.1-1.3-9.8-3.4-1.8-.7-3.9-1.1-5.8-1.6 3-2 6.1-3.7 8.8-6 1-1 1.7-1.7 1.8-3h-.4c-.6 2.8-4.6 4.8-6.9 6.3-1.2.8-2.5 1.6-3.8 2.2-1.3.5-2.5.4-3.7 1.2-9-8.7-17.4-18.1-26.4-26.8l.4-.7c2.1-.5 8.8 1.6 11.4 2 2.8-1.5 5.4-3.4 8.1-5.1l-.8-.5c-.6.2-1.4.9-2 1.2-1.5-4-2.4-8.3-3.4-12.4l-4.5-18.3Z"/>
  <path fill="#EDBEAA" d="M198.7 367.8c4-2.4 11.1-7.1 16-6.1.8.2 1.5.6 2 1.4.3.5.3 1 .2 1.6-.8 3.2-7.7 6.5-10.3 8.8 3.2-1.6 6.8-4.1 10.5-2.8.7.3 1.5.8 1.8 1.5.3.6.2 1.2-.1 1.7l-.4.6a33.3 33.3 0 0 1-5 4.1c2.5-.9 4.5-1.8 7-.6.7.3 1.1.7 1.6 1.4.1.8 0 1.4-.5 2-1.7 2.6-4.7 3.6-6.7 5.7 1.7 0 4-.5 5.3.9.4.3.5.7.7 1.1h-.4c-.6 2.9-4.6 5-6.9 6.4-1.2.8-2.5 1.6-3.8 2.2-1.3.5-2.5.4-3.7 1.2-9-8.7-17.4-18.1-26.4-26.8l.4-.7c2.1-.5 8.8 1.6 11.4 2 2.8-1.5 5.4-3.4 8.1-5.1l-.8-.5Z"/>
  <path fill="#0A1823" d="M198.7 367.8c4-2.4 11.1-7.1 16-6.1.8.2 1.5.6 2 1.4.3.5.3 1 .2 1.6-.8 3.2-7.7 6.5-10.3 8.8 3.2-1.6 6.8-4.1 10.5-2.8.7.3 1.5.8 1.8 1.5.3.6.2 1.2-.1 1.7l-.4.6a33.3 33.3 0 0 1-5 4.1c2.5-.9 4.5-1.8 7-.6.7.3 1.1.7 1.6 1.4.1.8 0 1.4-.5 2-1.7 2.6-4.7 3.6-6.7 5.7l-.4-.3c2-1.5 4.5-3 6.1-5 .5-.5.9-1.2.7-2-.1-.6-.5-1-1-1.4-3.5-2-14.1 6-18.2 7.3h-.4c1.8-1.7 4.3-3 6.5-4.2 3.6-2.2 7-4.4 10-7.2.1-.3.4-.7.4-1 .1-.5 0-1-.4-1.4-4-4.4-16.4 6.9-20.4 6.9 0-1.8 17.2-10 18.5-14.2.2-.6.1-.8-.1-1.4-.5-.5-1-.7-1.6-.8-4.8-1-11 3.5-15 5.9l-.8-.5Z"/>
  <path d="m220.4 389.1-.8-.9c-4.3-3-10.5 4.2-13.5 4.6 1.2-2 6.2-4.8 8.3-6l.4.3c1.7 0 4-.5 5.3.9.4.3.5.7.7 1.1h-.4Z"/>
  <path fill="#0E3F36" d="m246.2 346.8 1 .8.5-.2c2.6-1.6 10-2.3 13.3-3v.7c-4.2.8-8.6 1.9-13 2.4.4 4.1.3 8.3.4 12.4l.8 28.6c.2 6 0 12.3.5 18.4l4-.8c.7.6 1 .6 1.8.7-1.9.4-3.7 1-5.7 1-4.5.2-13.3-1.7-17.6-3.2v-.2a7 7 0 0 0-3.1-.9h-.2 2.4c5.6 1 11.1 2.6 16.8 3.1.2-19.6-1.2-39.2-1.3-58.8-3.9-1.1-7.8-1.3-11.8-2l.1-.5 8.1 1c1 .3 2 .5 3 .5Z"/>
  <path fill="#0F2C31" d="M216 399.8c5 1.3 10.3 2.3 15.3 3.6h-1.8l-.6.1h.2c1 .1 2.3.4 3.1 1v.1c-2.1-.2-4.4-.8-6.4-1.4-3-1.5-7.1-1.3-9.8-3.4Z"/>
  <path fill="#BF9F80" d="m282 340.8 18.3-3.8c2.8-.6 5.7-1.3 8.5-1.5-2.8 9.3-6.1 18.8-8.4 28.3l.3.4c-.4 2-1.2 4.2-1.9 6.3.7.5 1.7 1 2.2 1.9h-.3c1.6 1.1 4.3 2 4.6 4.2.2 1.6-.9 3.2-1.8 4.4a13 13 0 0 1-4.3 3.4c-1.3 3-2.5 3.8-5.5 5.2-.3 1.5-.5 3-2 4l-2.7 1.1c-.6 1.7-.9 2.7-2.5 3.7l-.4.3-.3.1c-1.6 1.6-8.4 1.4-10.7 3.7-2.9.8-5.8 1.3-8.7 2-2 .4-4.2 1-6.3 1.2l-4.6 1.1c-.9-.1-1.1-.1-1.9-.7l-3.9.8c-.5-6.1-.3-12.4-.5-18.4l-.8-28.6c-.1-4 0-8.3-.3-12.4 4.3-.5 8.7-1.6 13-2.4 7-1.2 14-3 20.9-4.3Z"/>
  <path fill="#EDBEAA" d="m286.7 370.5 1.1.4.1-.2c-1.4-1.7-3.4-3-4.3-5.1-.3-.8-.4-1.4 0-2.1a4 4 0 0 1 2.7-1.3c4.2-.4 9 4.9 12 7.3.8-1.8 1.4-3.8 2-5.7l.4.4c-.4 2-1.2 4.2-1.9 6.3.7.5 1.7 1 2.2 1.9h-.3c1.6 1.1 4.3 2 4.6 4.2.2 1.6-.9 3.2-1.8 4.4a13 13 0 0 1-4.3 3.4c-1.3 3-2.5 3.8-5.5 5.2-.3 1.5-.5 3-2 4l-2.7 1.1c-.6 1.7-.9 2.7-2.5 3.7l-.4.3-.3.1c-.6 0-1-.2-1.5-.5a42.5 42.5 0 0 0-7.7-5.7c-.6-.1-1.8-1.2-2.2-1.7a3 3 0 0 1-.7-2.5c0-.7.5-1.2 1-1.6 1.6-1 3.4-.6 5.1-.3-2.1-1.9-5-3.6-6.6-6-.5-.7-1-1.6-.6-2.6.2-.6.8-1.2 1.4-1.5 2-1 4.7-.3 6.7.3-1.6-1.4-3.7-3-4.5-5-.3-.7-.4-1.5 0-2.2.4-.6 1-1 1.7-1 2.9-.9 6.3.5 8.8 2Z"/>
  <path d="M280.7 376.7c-1.6-1.4-3.7-3-4.5-5-.3-.7-.4-1.5 0-2.2.4-.6 1-1 1.7-1 2.9-.9 6.3.5 8.8 2l-1 .3c-2.4-1.1-5-2.6-7.7-1.6-.6.2-1 .4-1.3 1-.2.9.1 1.5.6 2.3 2.7 3.7 11.6 9 15.2 12.8l-.4-.1c-4.1-1.7-13-10.4-17.6-8.5-.6.3-1.1.8-1.4 1.4-.3.7.1 1.5.5 2.1 3.3 5.1 10.6 7.1 14.5 11.6 0 .2.2.3.3.4l-.3-.1c-3.4-1.6-8.5-6.5-12.5-5-.6.1-1.2.6-1.5 1.2-.2.4-.2.8 0 1.2.4 1.3 2 2 2.5 3.1-.6-.1-1.8-1.2-2.2-1.7a3 3 0 0 1-.7-2.5c0-.7.5-1.2 1-1.6 1.6-1 3.4-.6 5.1-.3-2.1-1.9-5-3.6-6.6-6-.5-.7-1-1.6-.6-2.6.2-.6.8-1.2 1.4-1.5 2-1 4.7-.3 6.7.3Z"/>
  <path fill="#0A1823" d="m286.7 370.5 1.1.4.1-.2c-1.4-1.7-3.4-3-4.3-5.1-.3-.8-.4-1.4 0-2.1a4 4 0 0 1 2.7-1.3c4.2-.4 9 4.9 12 7.3.8-1.8 1.4-3.8 2-5.7l.4.4c-.4 2-1.2 4.2-1.9 6.3.7.5 1.7 1 2.2 1.9h-.3c-4-2-8.8-9.5-13.6-9.8-1.1 0-1.8.3-2.6 1-.2.5-.3.8-.3 1.3.5 3.1 12.5 12.5 15.4 15-4.5-1.7-9.4-6.4-13.8-9l1-.4Z"/>
  <path fill="#0F2C31" d="M284.3 398.3c.5.3.9.4 1.5.5-1.6 1.6-8.4 1.4-10.7 3.7-2.9.8-5.8 1.3-8.7 2-2 .4-4.2 1-6.3 1.2l-4.6 1.1c-.9-.1-1.1-.1-1.9-.7l6.6-1.4c1.9-.7 4-1 6-1.5 5.8-1.3 12.3-2.2 17.9-4.4l.2-.5Z"/>
  <path fill="#FDFDFD" d="M442.2 189.1c.5.6.8 1.2.8 2s-.4 1.4-.9 2q-4.2 3.3-8.7 6.3a120.3 120.3 0 0 1-30.6 77c-3.4 3.8-7.2 7.3-10.8 11-3.3 3.1-6.4 6.4-9.5 9.6l-51.6 52.1-13.8 14c-2.7 2.8-5.5 5.5-8 8.5-.8-1.3-1.9-2.2-3-3.3 4.6-5.3 10-10 14.8-15 14.8-15.4 30-30.2 45-45.3l12.7-13.1c3.8-3.8 7.6-7.6 11-11.9a88.8 88.8 0 0 0 17.8-63.1c-.2-2.8-.5-8-1.7-10.4.2-1 9.6-8 11.1-9.6l3.4 6c5-3.6 9.7-7.5 14.5-11.2 2.4-1.8 5.3-3.5 7.5-5.6Z"/>
  <path fill="#EDBEAA" d="M403.6 179.6c2 2.7 3.8 5.6 5.6 8.5 2.6 4 5.2 7.8 7.6 11.8-1.5 1.6-10.9 8.6-11.1 9.6-3 3.4-24 20-26.6 20.2-1.2.2-2.2-.5-3-1.3l-.3-.2c-.5 0-.8-.4-1.2-.7l-.7-1.4c-.4-.3-1.1-.4-1.6-.3l-1.7.3c-2.6 1.2-5.7 4.1-8.8 3-.6-.1-1-.4-1.3-1-.5-1.6.7-3.6 1.8-4.7 1.5-1.5 3.5-2.5 5.3-3.7 3.3-2.1 17.1-10.5 18.6-12.9l-.4-.3c-2.4 0-23 14.7-28 17-1.2.7-3.3 1.3-4.7.7a2 2 0 0 1-1.2-1.3c-.4-1.5.5-3.2 1.5-4.3 3.2-3.3 18.4-11.6 23-14.3 1.3-.8 4-2 4.7-3.3l-.3-.6c-.6-.1-.9-.1-1.4.2-7.1 3.7-13.8 8.9-21.3 11.9-1.4.5-3.6 1.2-5 .5-.6-.4-1-1.2-1-1.9-.2-1 .6-2 1.3-2.7 1.8-1.7 4.3-3 6.4-4.2q8.2-5 16.5-9.6c1.3-.8 3.7-1.8 4.6-3 .3-.2.1-.4.1-.8-2-1.9-9.7 3.5-15.6.7-1-.4-2.5-1.4-2.8-2.5-.3-.8-.3-1.7.1-2.5l16.6-4c1.3-.2 2.6-.2 4-.2 2.7.9 12.7 0 15.7-.8 1.6-.4 3.2-1 4.6-1.9Z"/>
  <path fill="#0F2C31" d="m370.6 226.1 14.8-10.2c2.1-1.5 4.2-3.3 6.5-4.5.3-.2.6-.2 1-.2l.3.4c0 .7 0 1-.6 1.5-1.5 1.3-3.7 2.3-5.4 3.4l-13 8.9 1.6 2.8c-.5 0-.8-.4-1.2-.7l-.7-1.4c-.4-.3-1.1-.4-1.6-.3l-1.7.3Z"/>
  <path fill="#C1B061" d="m213 313 1.3.9c1 1 2 2.1 2.7 3.3 4 6.2 7 16 9 23 .4 1 1.1 2.2 1 3.1-.6.4-.7.3-1.3.3l-1-.2-.8-.2-.5.7c-4.7-.9-9.5-1.8-14.4-2.5l.2-1-.2-.6.6-1h-.6c-1.7-1-8.7-16.2-11.4-19.8-.3-.7-.5-1.3-.6-2.2l-.7-.3c2.1 0 5.8-2 8.4-2.4l.3.5c-.5.2-1 .3-1.3.8 1 .5 2.4.1 3.5-.2l.3-.1c1.6-1 3.7-1.6 5.6-2.1Z"/>
  <path fill="#C1B061" d="m197 316.8 4-1.3c3 5.7 7.6 10.7 9.4 17l.9 2 .8 2.5c.5 1.1 1.3 2.7 1 3.9-.5.3-.8.1-1.5 0l-2.4-.5-.2-.6.6-1h-.6c-1.7-1-8.7-16.2-11.4-19.8-.3-.7-.5-1.3-.6-2.2Z"/>
  <path fill="#BF9F80" d="m209.6 338.9.6-.5c.6.3.7.5 1 1l.4 1.6-2.4-.6-.2-.6.6-1Z"/>
  <path fill="#0E3F36" d="M196.3 316.5c2.1 0 5.8-2 8.4-2.4l.3.5c-.5.2-1 .3-1.3.8 1 .5 2.4.1 3.5-.2l.3-.1-2.7 1.3c3.5 5 7.3 10.8 9 16.8-.6 1.2.2 1.8.2 3v.3l.3 1.8h-.2l-.8-1.8v.4c-.6-.8-1-1.8-1.5-2.6l-.5.1-.9-1.9c-1.8-6.3-6.4-11.3-9.5-17l-3.9 1.3-.7-.3Z"/>
  <path fill="#0E3F36" d="M214 336.1c0-1.1-.8-1.7-.3-2.9.7 1.7 1.4 3.4 1.9 5.1.2 1.2.5 2.3.5 3.5l3.2.5 4.6.9-.5.7c-4.7-.9-9.5-1.8-14.4-2.5l.2-1 2.4.6c.7 0 1 .2 1.6-.1.2-1.2-.6-2.8-1-3.9l-1-2.6h.6c.6.7.9 1.7 1.4 2.5l.1-.4.8 1.8h.2l-.3-1.8v-.4Z"/>
  <path fill="#104D46" d="m213.2 336.9.1-.4.8 1.8h.2l-.3-1.8v-.4c.5 1.4 1.6 4 1.2 5.4-1.3-1-1.4-3.2-2-4.6Z"/>
  <path fill="#BF9F80" d="m224.6 343.4 1-1a36 36 0 0 1-.4-2c.2.4.2.6.7.8l-.1-.8.3-.1c.3.9 1 2 .8 3-.5.4-.6.3-1.2.3l-1-.2Z"/>
  <path fill="#FDFDFD" d="M275 402.5c-7.7 9-17 17-25 25.9q-6.3-6.8-12.8-13.3c-3.4-3.4-9-8.1-11.4-11.9 2 .6 4.3 1.2 6.4 1.4a64.2 64.2 0 0 0 17.6 3.2c2 0 3.8-.6 5.7-1l4.6-1c2-.3 4.3-1 6.3-1.4 2.9-.6 5.8-1 8.7-1.9Z"/>
  <path fill="#0E3F36" d="M216.8 303.3c2.5-1.9 6-3 9.1-3.2 4.9 3.4 5 12.2 6.2 17.6l-.6.8c0 1.5.2 3 .4 4.3l-4 1.3h-.4l-2.2.7-1.8.7-1.5-3.7-.1-.2c-.6-1-1-2.2-1.5-3.4l-.3-.5c-.8-1.5-1.3-3-2-4.6l-.1-.2-.5-.8c-1.5-2.2-.8-6.3-.7-8.8Z"/>
  <path fill="#9E7948" d="M222 321.8c3.2-1 6.4-2.1 9.5-3.3 0 1.5.2 3 .4 4.3l-4 1.3h-.4l-2.2.7-1.8.7-1.5-3.7Z"/>
  <path fill="#AA7E46" d="M225.3 324.8v-.2c.3-.7.7-1.6 1.3-1.9.7.4.7.8.9 1.4l-2.2.7ZM218.1 313.1c1.8-.5 3.6-1.2 5.3-1.9l.7.6c.8 0 .9 0 1.4.4l.2 1 .2.1c.6.5.6.8.7 1.6-2.3.6-4.3 1.9-6.5 2.8-.8-1.5-1.3-3-2-4.6Z"/>
  <path fill="#9E7948" d="M225.1 316.2c.7.3.8.3 1.2 1 0 .8-.3 1.4-1 2l-.6.5-.1.6c-1 .4-2 .7-2.7 1.3-.6-1-1-2.2-1.5-3.4 1.5-.8 3-1.4 4.7-2Z"/>
  <path fill="#90693F" d="M226 315.8c1.6.1 3.3 0 4.7.3v.6c-.6.4-2.5 1-2.7 1.8l-.2.7-3.2 1.1.1-.6.6-.5c.7-.6 1-1.2 1-2-.4-.7-.5-.7-1.2-1l1-.4ZM223.4 311.2l2.8-1 1.6.3c.3.7.5 1.2.6 2-.3.5-1.3 1.2-1 1.7l.1.4-.9.3c-.1-.8 0-1-.7-1.6h-.2l-.2-1c-.5-.5-.6-.5-1.4-.5l-.7-.6Z"/>
  <path fill="#86663B" d="m226.2 310.2 3.1-1 1 4-2.8 1.4-.2-.4c-.2-.5.8-1.2 1-1.8 0-.7-.2-1.2-.5-1.9l-1.6-.3Z"/>
  <path fill="#6C5437" d="M226 315.8h.3c1.3-.5 2.5-1.4 3.8-1.4.6.3.6.4.9 1l.1.6-.4.1c-1.4-.3-3.1-.2-4.6-.3Z"/>
  <path fill="#86663B" d="M231.1 316c.1.8.3 1 0 1.8-1 .8-2.2 1-3.3 1.4 0-.2 0-.5.2-.7.2-.7 2.1-1.4 2.8-1.8v-.6l.3-.1Z"/>
  <path fill="#9E7948" d="M217.3 309.1c0-1.4-.1-3.2.5-4.5.7-1.6 1.9-2.1 3.4-2.7.7.2 1.3.3 1.8 1 .1.6.3 1 .3 1.7l.4.8-.5 1c1.7-.3 3.2-1.4 5-1.7l.9 4c-2.4.7-4.8 1.9-7.2 2.4l-3.7 1.3-.9-3.3Z"/>
  <path fill="#CD8D38" d="M217.3 309.1c0-1.4-.1-3.2.5-4.5.7-1.6 1.9-2.1 3.4-2.7.7.2 1.3.3 1.8 1 .1.6.3 1 .3 1.7h-.4l-1-.2-.2 1.4c-.5 0-.9-.2-1.3-.3l-.8-.1-.3.3c.2.5.2.9.7 1.2l.6.3.1.4c-.7.4-1.4.5-2 1.1.7 0 1.4-.2 2-.4l.7.4c0 1.2 0 1.4.5 2.4l-3.7 1.3-.9-3.3Z"/>
  <path fill="#AA7E46" d="M221.2 302c1.4-.4 3.8-1.1 5-.4.6.3 1 .8 1.3 1.3l.2.8c-.8 1-2.3 1-3.2 1.7h-.8l-.4-.8c0-.6-.2-1.1-.3-1.7-.5-.7-1-.8-1.8-1Z"/>
  <path fill="#90693F" d="m227.5 303 .2.7c-.8 1-2.3 1-3.2 1.7a2 2 0 0 1-.2-1c.8-.8 2-1 3-1.4h.2Z"/>
  <path fill="#CE4546" d="m245.7 335 .5.1.6-.3c2.4-1.1 5-2.2 7.6-1.2h2.9c3 1 3.6 2 5 4.8.2 1.6.8 4-.2 5.3-.3.4-.7.6-1.1.8-3.4.6-10.7 1.3-13.3 2.9l-.5.2-1-.8c-1 0-2-.2-3-.5l.5-.2c-.6-1.3-3.3-2.5-4.5-3.2l.6-.8c.3 0 .5 0 .7-.2.4-.5.6-1.2.9-1.8 1-2 2.4-4 4.3-5.2Z"/>
  <path fill="#8E3236" d="m245.7 335 .5.1.6-.3c2.4-1.1 5-2.2 7.6-1.2a16.3 16.3 0 0 0-12.3 10c1.3 1 2.9 2 4 3.2-1 0-1.9-.2-2.9-.5l.5-.2c-.6-1.3-3.3-2.5-4.5-3.2l.6-.8c.3 0 .5 0 .7-.2.4-.5.6-1.2.9-1.8 1-2 2.4-4 4.3-5.2Z"/>
  <path fill="#CE4546" d="M245 325.2c3.9 1 7 1.3 9.2 5l1 1.8 2 1.5h-2.8c-2.6-.9-5.2.2-7.6 1.3l-.6.3-.5-.2a14 14 0 0 0-4.3 5.2c-.3.6-.5 1.3-1 1.8-.1.3-.3.2-.6.2-1.6-.5-5-.3-6.2-1.4-.8-.8-.8-2.3-.8-3.4 0-3.6.5-6.6 3-9.1 1.1-.5 2.1-1 3.1-1.7 2-.7 3.9-1.1 6-1.3Z"/>
  <path fill="#552D2F" d="m255.3 332 2 1.5h-2.9c-2.6-.9-5.2.2-7.6 1.3l-.6.3-.5-.2c2.7-2 6.3-2.6 9.6-2.9Z"/>
  <path d="m197.6 319-.1.1-.3-.1c-.6-1.4-2-2.6-2-4v-.3l-.1-1.5c0-.8.4-1.3 1-1.8 1.8-1.4 8.9-4.8 11.1-4.2 1.6.4 6.5 4.8 7.3 6.2l-.2.5-1.2-.9c-2 .5-4 1-5.6 2l-.3.2c-1 .3-2.5.7-3.5.2.3-.5.8-.6 1.3-.8l-.3-.5c-2.6.4-6.3 2.4-8.4 2.4l.7.3c0 .9.3 1.5.6 2.2Z"/>
  <path fill="#5D812D" d="M206.7 312c1-.5 1.9-1.1 3-1.3l.3.3c-.4 1.1-2 1.6-3 2.1l-2.3 1c-2.6.4-6.3 2.4-8.4 2.4 1.3-1.6 8-3.5 10.4-4.4Z"/>
  <path fill="#BF9F80" d="m211.2 311.5 1.9 1.5c-2 .5-4 1-5.6 2l-.3.2c-1 .3-2.5.7-3.5.2.3-.5.8-.6 1.3-.8 2.2-.8 4.2-1.9 6.2-3.1Z"/>
  <path fill="#CD8D38" d="M195.8 314.1c0-.5 0-1 .2-1.5 1.4-2.2 7.2-4.2 9.7-4.6 1.1-.2 1.7 0 2.6.7.5.6.6.6.6 1.3-3.7 2.7-8.6 4-12.8 5.8-.4-.5-.3-1-.3-1.7Z"/>
  <path fill="#552D2F" d="M233.2 329.3c1 0 1.8-.7 2.7-1.1-2.6 2.5-3.1 5.5-3.1 9 0 1.2 0 2.7.8 3.5 1.1 1.1 4.6 1 6.2 1.4l-.6.8c1.2.7 4 2 4.5 3.2l-.5.2-8-1-5.6-1.1-.5-.6-1.3-5.2c-.2-.8-.4-1.6-.8-2.3-.1-.6-.3-.6 0-1.2 1.1-.8 2.5-1 3.8-1.3l-.7-.5 2.7-.9.4-3Z"/>
  <path fill="#CE4546" d="m229.6 344.2 1-.6c2.8-1.6 5.5-1.6 8.6-.7 1.2.7 4 2 4.5 3.2l-.5.2-8-1-5.6-1.1Z"/>
  <path fill="#9E7948" d="M228 338.4c1.2-.1 3-.7 4.2-.2.7.8.5 2 .5 3-1 .8-2.3 1.9-3.6 2.4l-1.3-5.2h.3Z"/>
  <path fill="#86663B" d="M230.8 333.6c.7-.1 1.2-.3 1.9-.1-.2 1.1-.2 2.2-1.2 3-.9.5-1.8.7-2.8.9-.3.3-.5.5-.6 1h-.3c-.2-.8-.4-1.6-.8-2.3-.1-.6-.3-.6 0-1.2 1.1-.8 2.5-1 3.8-1.3Z"/>
  <path fill="#9E7948" d="M230.8 333.6c.7-.1 1.2-.3 1.9-.1l-.3.2c-1 .5-1.2 2.5-2.3 2.6l-.3-.3-.8-.8c-.5.2-.7.4-1 .7l-1 .2c-.1-.6-.3-.6 0-1.2 1.1-.8 2.5-1 3.8-1.3Z"/>
  <path fill="#0E3F36" d="M238.9 316.1c.6.1 1.2.3 1.9.3 2 .5 3.7 1 5.3 2.3l.8.3c0 .6-.2 1-.6 1.5l-.2.3.3.3c-.9.8-4.2 2.3-4.5 3 1 .2 2.4.4 3 1.1-2.1.2-4 .6-6 1.3.3-.2.4-.4.8-.5l1.1-.7c.5-.4.6-.8.7-1.4-1.4-1.5-5.2-.6-7.2-1.7-.4-.5-.4-.6-.4-1.3.1-1.4.4-2.6 1.4-3.6 1-1 2.2-1.2 3.6-1.2Z"/>
  <path fill="#85C864" d="M238.9 316.1c.6.1 1.2.3 1.9.3l.4 1c.1 1.9-.7 2.7-1.5 4.4h-2.3c-1.4 0-2.3-.3-3.5-1 .1-1.3.4-2.5 1.4-3.5 1-1 2.2-1.2 3.6-1.2Z"/>
  <path fill="#7FB44D" d="M240.8 316.4c2 .5 3.7 1 5.3 2.3-.5.6-1 .8-1.7 1-.8.8-3.5 1.7-4.7 2 .8-1.6 1.6-2.4 1.5-4.4l-.4-.9Z"/>
  <path fill="#5B8F4E" d="m246 318.7.9.3c0 .6-.2 1-.6 1.5l-.2.3c-1.9 1.2-3 2-5.3 1.5l-3.4-.5h2.3c1.2-.4 4-1.3 4.7-2 .7-.3 1.2-.5 1.7-1Z"/>
  <defs>
    <linearGradient id="a" x1="483.2" x2="485.3" y1="652.6" y2="671.4" gradientUnits="userSpaceOnUse">
      <stop offset="0" stop-color="#083F38"/>
      <stop offset="1" stop-color="#0B5F50"/>
    </linearGradient>
  </defs>
  <path fill="url(#a)" d="M487.4 637.5c1.3 1.4 1.4 4.7 1.8 6.6l.6 1.6-.6 1.7c-2.8 0-5.4.3-7.4 2.4s-2.5 4.6-2.8 7.4c0 1.4 0 1.5.8 2.7 4.1 2.2 11.8.4 14.7 3.5 0 1.2-.2 2-1.3 2.8l-2.4 1.4c-.6.3-1 .6-1.5 1.2-2 1.1-4 2.3-6.2 3.3-1.8 1-3.6 2.4-5.6 2.3-.3-1.1-.3-1.5-1.2-2.3l-1.7.2V671c1-.5 1-.5 1.7-1.4.3-2.6-.5-5.2-1-7.7l-8.1 2.8-.5-1.1c2.8-1 5.5-1.8 8.3-2.5-.4-3-1-5.9-.9-8.8l1.3-1.8c.4 3 1 5.6 1.9 8.4 2-14.3 3.3-7.6 10.4-13.7 0-1.2-.2-1.7-.9-2.7-1.4-.4-3.2.8-4.8 1-1.4-.4-2.3-.8-3.6-1.8l.3-.5c1.8.5 3.8 1 5.7.2 1.9-.8 2.4-2.3 3-4Z" transform="scale(.488281)"/>
  <path fill="#7FB44D" d="M248 317.9c.4-.9.4-1.7.9-2.6a7 7 0 0 1 1.4-.2v.4c2.4 4.5 3.3 6.6 2.8 11.7a32.8 32.8 0 0 0-7.1-2.8c-1.4-.4-2.7-.4-4-.4.2-.6 3.5-2 4.4-2.9.8-1 1.3-2 1.7-3.2Z"/>
  <path fill="#7FB44D" d="m239.8 308.8.5-.2c.1 1 0 1.5.7 2.2l-.4.3c.7.4 1.5.8 2 1.3 1 .9 2.5 3.6 3.8 3.3.4 0 1-.3 1.3-.5l.3.2v2.5c-.3 1.2-.8 2.2-1.6 3.2l-.3-.3.2-.3c.4-.6.7-.9.6-1.5l-.8-.3a11.4 11.4 0 0 0-5.3-2.3c-.7 0-1.3-.2-2-.3l.4-.8-.3-.8c-.2-1-.3-2.5-1-3.2l-1-1.3.5.2c.8.1 1.8-1 2.4-1.4Z"/>
  <path fill="#294818" d="M239.2 315.3c1.4.2 8.3 2.6 8.8 2.4v.2c-.3 1.2-.8 2.2-1.6 3.2l-.3-.3.2-.3c.4-.6.7-.9.6-1.5l-.8-.3a11.4 11.4 0 0 0-5.3-2.3c-.7 0-1.3-.2-2-.3l.4-.8Z"/>
  <path fill="#C1B061" d="m239.8 308.8.5-.2c.1 1 0 1.5.7 2.2l-.4.3c-.3 1-.6 2.6-1.4 3.3l-.3.1c-.2-1-.3-2.5-1-3.2l-1-1.3.5.2c.8.1 1.8-1 2.4-1.4Z"/>
  <path fill="#9E7948" d="M232 323.2c.3 1.2.7 2.5.6 3.8-.3.4-.4.5-.9.7l-6.5 2.4-1.6-4.2 4.5-1.3 4-1.4ZM231.8 328.3l.8-.1c.4.4.4.5.6 1l-.4 3-2.7 1-2.3.7a15 15 0 0 1-.6-2.9c.7-.6 1.5 0 2.3-.4 0-.6-.2-.8-.5-1.2l2.8-1.1Z"/>
  <path fill="#FDFDFD" d="M240.5 306.3c1 0 1.8 0 2.7.3a7 7 0 0 1 1.5 2.5l-.4 1.8-3.3-.1c-.6-.7-.6-1.3-.7-2.2l.2-2.3Z"/>
  <path fill="#F9B2E4" d="m236.2 309.5-.5-1.3c-.2-.6 0-1.2.3-1.8.3-.2.5-.5 1-.6.6 0 1.2.2 1.7.6.8.6 1 1.5 1 2.4-.5.5-1.5 1.5-2.3 1.4l-.6-.2-.6-.5ZM248.7 308.1c.6-.4.9-.7 1.6-.7.7 0 1.2.5 1.6 1 .5.7.5 1.2.4 2-.5.6-.9 1-1.7 1l-1.3-.1-.8-.6-.4-.7c-.3-.7 0-1 .2-1.6l.4-.3Z"/>
  <path fill="#F48CCF" d="m248.7 308.1 1 1.5c.2.4.4.7.8.8h1.8c-.5.6-.9 1-1.7 1l-1.3-.1-.8-.6-.4-.7c-.3-.7 0-1 .2-1.6l.4-.3Z"/>
  <path fill="#F5D9EE" d="m233.7 313.1-.1-.5c-.2-.8-.2-1.4.3-2 .6-.8 1.4-1 2.3-1l.6.4 1.2 1.3c-.3.8-.6 1.6-1.5 2-.9.3-1.9 0-2.8-.2ZM245 309c-.2-.6-.4-1.4-.4-2 .1-.8.4-1 1-1.6.3-.1.7-.3 1.1-.2 1 .2 1.5.7 1.9 1.5 0 .8-.1 1-.5 1.6-.8.5-1.6 1.1-2.6 1.2l-.5-.5ZM247.7 310.8h.8l.8.5c.5.4.8.5 1 1.1 0 .6 0 1.1-.5 1.6-.4.4-.9.5-1.5.5-.4-.2-.6-.2-.8-.7-.4-.9-.1-2 .2-3ZM240.5 306.3c0-.7-.1-1.5.4-2.1.3-.4.8-.7 1.4-.6.6 0 1 .4 1.4.8.2.6.3 1 0 1.6 0 .2-.3.4-.5.6l-2.7-.3Z"/>
  <path fill="#AA7E46" d="M225.8 330.4c1-.2 2.1-.7 3.2-1 .3.4.5.6.5 1.2-.8.5-1.6-.2-2.3.4l.6 3h-1.1c-.3-.4-.6-.7-.7-1.1-.3-.8-.5-1.7-.2-2.5Z"/>
  <path fill="#0A1823" d="m248 308.3.3.1c-.3.6-.5 1-.2 1.6l.4.7h-.8c-.6-.3-.7-.4-1.4-.4l-.7 1-.2.3c-.7 0-.7-.2-1.1-.7l.4-1.8h.3l.5.4c1 0 1.8-.7 2.6-1.2Z"/>
  <path fill="#FDFDFD" d="M213.8 206.1a20 20 0 0 1 8.5.8c4.4 1.3 8.2 4.3 10.4 8.4 2.2 4 2.4 9.3 1 13.7-2.4 7.5-7.4 9.5-14 12.8 3 .3 5.8.3 8.6.6 5.2.7 10.4 2 15.6 2.4 2.9.2 5.8 0 8.7-.2-1 1.6-2 2.6-3.5 3.6-4.1 2.8-8 3.3-12.7 2.5-4.5-1-8.7-2.6-13.2-3.4-7.9-1.5-16.4-1.2-24.4-1.5 4.5-3.2 10-3.9 15.3-4.3-3.7-.4-6.8-1.1-9.8-3.3l-.7-.5-.7-.6-.6-.6-.6-.6-.6-.6-.5-.7-.5-.7-.5-.7-.4-.7-.4-.8-.3-.7-.3-.8-.3-.8-.3-.8q0-.5-.2-.9l-.1-.8c-.7-4.6 0-9.3 2.8-13.1 3.3-4.6 8.2-6.8 13.7-7.7Z"/>
  <path fill="#104D46" d="M214.6 211.2a12 12 0 0 1 7.5 1.5c2.5 1.5 4 4.3 4.6 7.1 1 4.2.3 9.1-2.1 12.7-1.7 2.5-4 4-6.9 4.6-2.6 0-5-.5-7.2-1.8a12.7 12.7 0 0 1-5.5-8 14 14 0 0 1 1.7-11c1.9-3 4.5-4.4 8-5Z"/>
  <path fill="#5B8F4E" d="M123 214.7c1.7-.7 9-6.2 10-6l.6 1 .6-.1a21 21 0 0 1 3 12.2l-.3-1.2c0 3.4.3 7.6-.8 10.8-.4 1-.3 1.9-.8 2.8h-.3a58 58 0 0 1-2.8 5.7 42.3 42.3 0 0 1-22.5 17.3 72 72 0 0 1-9.3 3.3c-.5-5-1.1-9.9-.7-14.9a33 33 0 0 1 8-20c1.5-1.8 3.4-3.2 5.2-4.8 0-.5.7-1.1 1.1-1.5 1.7-1.7 6.6-4.8 9-4.6Z"/>
  <path fill="#0E3F36" d="m133.6 209.7.6-.1a21 21 0 0 1 3 12.2l-.3-1.2c0 3.4.3 7.6-.8 10.8-.4 1-.3 1.9-.8 2.8h-.3a37.2 37.2 0 0 0-1.4-24.5ZM112.9 220.8c0-.5.7-1.1 1.1-1.5 1.7-1.7 6.6-4.8 9-4.6l-10.1 6.1ZM131.8 215.8l.1.2a77 77 0 0 1-3.5 8.1 148.4 148.4 0 0 1-25 33.2l-.2-.4 1.2-2.9 1.3-2.8 1.4-2.9 1.5-2.8 1.5-2.7 1.6-2.7 1.7-2.7 1.8-2.6 1.8-2.6 2-2.5 2-2.4 2-2.4 2-2.4 2.3-2.3 2.2-2.2 2.3-2.2Z"/>
  <path fill="#0E3F36" d="m129.9 215.5.3.1c-.3.9-6.2 5.7-7.4 6.8a98 98 0 0 0-20.8 32.8h-.2a39.3 39.3 0 0 1 17.8-33.8c3.2-2.2 6.8-4 10.3-5.9ZM132 219.6c1.2 4-1.5 12-3 15.7a37.6 37.6 0 0 1-20.1 19.4c0-.5 1.2-1.5 1.5-1.8 8.8-8 18.2-21.9 21.6-33.3Z"/>
  <path fill="#FDFDFD" d="m290.4 161.4.9-.1.8-.1h.9l.9-.1H295.6l.8.2.9.1.8.2.8.2.8.3.8.3.8.3.8.4.8.4.7.5.7.5.7.5.6.6.6.5.6.7.6.6.5.7.5.7.5.7.4.7.4.8.4.8.3.8.3.8.2.8.2.9.1.8.2.8v3.5l-.1.8q0 .5-.2.9l-.1.8-.3.8q0 .5-.2.9l-.3.8-.4.7-.3.8-.5.8-.4.7-.5.7-.5.7-.6.6-.6.7-.6.6-.6.5-.7.6-.7.5-.7.4-.7.5-.8.4-.8.3-.8.3-.8.3-.8.2q-.4.2-.9.2l-.8.2-.9.1h-.8l-.9.1H292.4l-.9-.1-.8-.2-.8-.2q-.5 0-.9-.2l-.8-.2-.8-.3-.8-.4-.8-.4-.7-.4-.8-.4-.7-.5-.7-.6-.6-.5-.6-.6-.6-.6-.6-.7-.5-.6-.5-.7-.5-.8-.4-.7-.4-.8-.4-.8-.3-.8-.3-.8-.2-.8-.2-.8-.2-.9v-.8l-.2-1V177l.2-.8.1-.9.2-.8.2-.9.3-.8.3-.8.4-.8.3-.8.5-.7.4-.7.5-.8.5-.6.6-.7.6-.6.6-.6.6-.6.7-.5.7-.5.8-.5.7-.4.8-.4.8-.3.8-.4.8-.2.8-.3.8-.2Z"/>
  <path fill="#104D46" d="M291.9 166.3c2.3-.2 4.5-.1 6.6 1 2.5 1.3 4.1 3.8 5 6.5 1 3.9.7 8.8-1.4 12.3a9.6 9.6 0 0 1-6.3 4.8c-2.1.1-4.1.1-6.2-.8a10 10 0 0 1-5.1-6.2c-1.3-3.8-1.1-8.6.7-12.2 1.6-3 3.7-4.4 6.7-5.4Z"/>
  <path fill="#AFD4E6" d="M271 304c1.2 0 2.3.3 3.5.2l2.8.4c1 .1 2.3.2 3.3.8.3.4.3.6.3 1.2.7.8 1.9 1.2 2.8 1.9 3.6 2.6 4.1 6.4 3.9 10.5-.1 2-.2 3.8-.5 5.7l-.2 5.2a50 50 0 0 1-.7 6.4v2.8l-4.3.9-.2.1c-3.6.8-7.3 1.4-10.8 2.3l-4 .8c-1-1.9-2-4.3-3.5-5.8l-1.4-2c-.2-2.3.5-20.4 1-23 .5-2 1.4-2.9 3.2-4a61 61 0 0 0 4.4-2l.4-2.5Z"/>
  <path fill="#CD8D38" d="M274.2 328c.7.8 1.3 1.9 2.1 2.7.6.8.9 1.6 1.2 2.5.4-1 .2-2.3.1-3.3l.5-.3c.7 0 .7-.1 1.3.3l.8 1.6.7.3c.4 2.7.4 5.6 1 8.2l-.2.1c-3.6.8-7.3 1.4-10.8 2.3l-4 .8c-1-1.9-2-4.3-3.5-5.8l-1.4-2c1-1 1.7-1.8 3-1.8l-.3-.7c-.2-.6 0-.9.4-1.3 1 .5 2 .9 3 1.1l1.1.4c-.2-1-1.2-1.7-1.3-2.8.2-.8.8-1.2 1.4-1.7.7-.2 1.3-.3 2 0l1 .9 1.9-1.6Z"/>
  <path fill="#E5A313" d="M262 335.4c1-1 1.7-1.8 3-1.8 1.5 1 3.6 3.7 4.5 5.3-1.5-.6-2.7-2.3-3.9-3.4 1.5 3.3 4 4.2 5.2 6.7l.1.2-4 .8c-1-1.9-2-4.3-3.5-5.8l-1.4-2ZM269.3 328.6c1 1.7 2.6 4.4 2.6 6.3l-.3.1c-.8-.5-1.8-1.1-2.4-2-.2-1-1.2-1.6-1.3-2.7.2-.8.8-1.2 1.4-1.7ZM274.2 328c.7.8 1.3 1.9 2.1 2.7l-.6 1.6c0 .6 0 1.1-.2 1.7-1.2-.8-1-3.5-3.2-4.5l1.9-1.6Z"/>
  <path fill="#AA7E46" d="M276.3 330.7c.6.8.9 1.6 1.2 2.5.4 1.5.3 3.3.3 4.9a13 13 0 0 1-2-5.8l.5-1.6Z"/>
  <path fill="#D3E2EE" d="m266.2 308.5.5.6a12 12 0 0 0-.3 4.7c-1.5 2.7-.2 14.2-1.3 17.8-.3.4-.6.7-.4 1.3l.3.7c-1.3 0-2 .9-3 1.8-.2-2.3.5-20.4 1-23 .5-2 1.4-2.9 3.2-4Z"/>
  <path fill="#FDFDFD" d="M266.7 309c.7.4 1.5.7 1.7 1.5a2 2 0 0 1-.2 1.8c-.4.6-1.2 1-1.8 1.5a12 12 0 0 1 .3-4.7Z"/>
  <path fill="#E5A313" d="M277.6 330c.1-.9.2-1.4.8-2 .3 0 .5-.1.8 0 1.2.8 1.5 2.5 1.7 3.8l-.7-.3-.8-1.6c-.6-.4-.6-.4-1.3-.3l-.5.3Z"/>
  <path fill="#D3E2EE" d="M277.3 311.4c2-.5 4.2-.5 6 .6 1 .5 1.7 1.2 1.9 2.1.1.5 0 .6-.2 1-.8.5-1.5.5-2.5.3s-1.9-.7-2.8-1.2H278c-.8 0-1.4-.2-2-.8-.3-.4-.2-.5-.2-.9.5-.6.7-.8 1.5-1.1ZM275.9 315.6l.3.3c.6 3.8.4 8.6 0 12.4-.7-1.6-.3-10.3-.3-12.7Z"/>
  <path fill="#FDFDFD" d="M202.2 160c.5.2.7.2 1 .5 1 3.6 1.2 7.6 1.7 11.3 1.1 7.6 2.5 15.2 3.3 22.7l-7.2.6c-.3-5.2-1.5-10.2-1.7-15.4-2.8 5.4-4.5 11.6-7.7 16.8-2-2-3.6-4.3-5.4-6.5l-7.1-8.5c1.2 5.1 2.2 10 3 15.2v.4c-1 .9-5.4 1-6.8 1.2-1.1-6.5-2-13-3-19.6-1-5.5-2.3-11.4-2.3-17 3.5 3 6.4 7 9.3 10.5l11.2 13.7c1.3-2.2 2.1-4.9 3.1-7.3l5.1-12.4 2-5c.5-.8.8-.9 1.5-1.1ZM243.7 157.5c3.1 1.2 17 18.3 21.7 21.7.1-6.3 0-12.6.3-19l7.5.1c-.5 3.6-.4 7.5-.6 11.1-.3 7.8-.6 15.5-.2 23.2-.2.5 0 .3-.5.6a2 2 0 0 1-1.3-.5c-1.6-1.3-3-3.3-4.4-4.8l-8.3-8.9c-2.3-2.5-4.6-5-7.1-7.4.4 6.3.3 12.6.3 18.9h-7c0-11.6-.6-23.3-.4-35ZM323.3 160.5c6-.4 11.5 1.2 16.7 4.3l-3 5.1c-3.1-2-6.7-3.9-10.5-3.7a6 6 0 0 0-4.5 1.9c-.6.7-1 1.7-.9 2.7.5 3.5 10.5 6.8 13.5 9 2.6 1.8 4.7 4.5 5.1 7.8.4 2.8-.4 6.4-2.2 8.7-2.5 3-6.2 4-9.9 4.4-6.2 0-12-1.2-17-5.3l2.8-5.3c3.9 2.7 8 4.9 12.9 4.4 1.5-.2 3.4-.8 4.3-2.1.8-1 1-2.5.7-3.8-.8-4.8-9.4-6.6-13-9a9.9 9.9 0 0 1-3.2-14.3c2-2.9 4.9-4.2 8.2-4.8ZM201.3 257.8c.6 0 1.5 0 2 .2 1.3.7 10.1 20.3 11.3 22.7 1.8-3.3 10.2-20.6 12.1-21.8.6-.4 1-.3 1.6-.2.5.6.6.9.6 1.6.4 3.3 0 7 0 10.3q-.3 9.8-.4 19.7l-6-.2v-3.3q0-6 .5-11.8c-2 4.1-5.1 10.8-8 14.2-.3.2-.3.3-.6.1-2.4-1.1-7.1-13-8.4-16 .5 5.3.5 11 0 16.2h-6c0-3.8.2-30 1.3-31.7ZM239 207.9c2.4 0 4.8 0 7.1.3l-.7 15c-.1 2.7-.6 5.9-.1 8.6 0 1 .5 1.8 1 2.6 1.3 2 3.6 3 5.9 3.3 2 .3 4.4 0 6-1.4 1.4-1 2.1-2.5 2.6-4.1 1.6-5 1.2-17 1.7-23l7 .3-.3 5.4c-.6 7.7.8 19.6-5.5 25.3a13.7 13.7 0 0 1-10 3.2c-4.7-.1-9.6-1.4-13-5a11.1 11.1 0 0 1-2.7-5.7c-.6-3.4.1-7.3.3-10.8l.7-14ZM223.2 156.5c.9.6 1.5 1.6 2 2.5 1.4 2.2 2.4 4.7 3.6 7l6 11.6c2.4 5 5.2 10 7.2 15l-7.3.3c-1-2-2.2-4-3-6.2l-3.8.3-8.3.5c-.7 2.1-1.2 4.3-1.8 6.4l-7.8.5q3.4-9.2 6.5-18.6l4-12.3c.8-2.3 1.5-5 2.7-7Z"/>
  <path fill="#104D46" d="M224.5 171.5c1 .6 4.3 9 5 10.5l-3.8.2-5 .2q2-5.4 3.8-10.9Z"/>
  <path fill="#FDFDFD" d="M336.9 258.2c4 2.3 14.3 15.2 18.7 19.4.2-6.3.1-12.6.1-18.8h6.5q.2 15.8.1 31.7c-.7.5-2.1.3-2.9.2q-8.4-8.7-16.3-18c-.2 6 .1 12 .1 18h-6.5v-20.6c0-4-.2-8 .2-11.9ZM275 209.6c7.5.4 15 .5 22.7.7l-.2 5.8c-5.2 0-10.5-.4-15.7-.5l-.4 8.6 12.2.7-.2 5.4c-3.2 0-9.5-1-12.4-.5v2.4l-.3 5.8 15 .9-.3 5.8c-7.5-.2-15-.8-22.5-1.2.1-4.4.7-8.8 1-13.2q.6-10.3 1-20.7ZM260.1 259c6.4 5.2 11.2 12.3 17 18 .5-5.2.3-10.7.5-16h6.5l-.2 31.9-1.5-1.1c-6-5.7-11.2-12.1-16.3-18.5-.5 5.9 0 11.8-.5 17.8h-6.5c0-5.8.3-11.7.4-17.6 0-4.5-.4-10.2.6-14.6ZM152 254l.5.1c1.8 4.1 3 8.7 4.6 13 2.5 6.8 5.4 13.7 7.5 20.7l-6.5-.2c-1-1.9-1.6-3.7-2-5.7-2-.2-4-.1-6-.2l-5.5-.2-2.3 4.8c-1.9-.3-4-.2-5.8-.3l9.2-23c1-2.4 1.8-5.5 3-7.7.7-1 2.1-1.1 3.2-1.3Z"/>
  <path fill="#0E3F36" d="M150.5 266.8c1.7 2 2.8 7.3 3.6 9.9l-3.6-.1-4-.3c1.8-2.9 2.8-6.4 4-9.5Z"/>
  <path fill="#7FB44D" d="m307.6 306.5 1-2c.3-.8.5-1 1.3-1.1.7.3 1.2.7 2 .6l.7-.3.3.2-.5 1.4c0 1.3.5 3-.4 4v.3c-1 1.8-3.9 5.2-3.4 7.2l.4.5c-.1 2.9-9 17.2-11.5 19.2-.4.3-.6.4-1 .4l-.3-.2.2-.3c.3-.7.4-1 .5-1.8l.2-.8c-.6 1-1 2.6-1.8 3.3l-.8.1-.2-.3c.2-1.2.8-2.1 1.3-3.3-1 1.2-1.6 2.6-2.2 3.9l-4.7 1-1 .2-1.5.4v-2.8c.4-2.1.6-4.3.7-6.4 1.3-1.2 2.6-5 3.5-6.6 2-3.5 4-7.2 6.6-10.3h.4c0 1.2-1.8 2.7-2.1 4-.2.6 0 .7.3 1.2 2.3-3.5 4-7.6 6.4-11l.4-.4.7.1c.4.1.8.3 1.3.3a4 4 0 0 1 1.3-2c.6.5 1.2 1 1.9 1.3Z"/>
  <path fill="#5D812D" d="M304.4 307.2a4 4 0 0 1 1.3-2c.6.5 1.2 1 1.9 1.3-.9 2.2-1.7 4.5-3.1 6.4l-.1.4-.6 1.8c-.8 2.1-2 4.3-3.4 6.2l-.1.2-6.6 13c-.2.4-.1.3-.5.6.5-3.6 4.2-8.9 6-12.1-3.6 2.7-5.5 8-6.9 12.3l-.5 1c-.3.5-.4.9-1 1 .9-1.8 1.5-3.7 2.3-5.6l2.5-5.5c.7-1.6 1.1-3.3 1.7-4.9l2-4.9c.5-1.8.8-3.8 1.4-5.6.4-1.2 1.2-2.3 1.3-3.6l.4-.4.7.1c.4.1.8.3 1.3.3Z"/>
  <path fill="#294818" d="M305.7 305.2c.6.5 1.2 1 1.9 1.3-.9 2.2-1.7 4.5-3.1 6.4l-.6-.2c.6-2.5 1.8-4.8 1.8-7.5Z"/>
  <path fill="#425F23" d="m303.9 312.7.6.2-.1.4-.6 1.8c-.8 2.1-2 4.3-3.4 6.2-1-2.8 2.7-6 3.5-8.6Z"/>
  <path fill="#294818" d="m303 307 1.4.2c-.6 1.7-.7 3.5-1.5 5.2l-.3.8c-.3-.7-.3-1.5-.3-2.3.2-1.4.7-2.6.8-4Z"/>
  <path fill="#425F23" d="M302.3 311c0 .7 0 1.5.3 2.2-.3.8-.7 2-1.4 2.3-.1-.2-.2-.2-.2-.5-.2-1.2.5-3.2 1.3-4Z"/>
  <path fill="#5D812D" d="M286.9 329.9c1.3-1.2 2.6-5 3.5-6.6 2-3.5 4-7.2 6.6-10.3h.4c0 1.2-1.8 2.7-2.1 4-.2.6 0 .7.3 1.2l-1.7 4.1h-.6a65 65 0 0 0-4 10.7c1.9-2.5 2.5-6.1 4.6-8.4l.3.1c.5-.9 1.2-1.7 1.8-2.5l.2 1c0 .3-5.8 13.4-6.4 14l-.5.6-.6.6-1 .3-1.5.4v-2.8c.4-2.1.6-4.3.7-6.4Z"/>
  <path fill="#8BA64D" d="M294.2 324.7c.5-.9 1.2-1.7 1.8-2.5l.2 1c0 .3-5.8 13.4-6.4 14l-.5.6-.6.6-1 .3-.1-.1c.1-3 .6-6.5 1.8-9.3h.3c-.1 2.3-1.1 4.5-1.4 6.8l.5-.7c2.2-3.2 3.6-7.2 5.4-10.7Z"/>
  <path fill="#425F23" d="m312 304 .6-.3.3.2-.5 1.4c0 1.3.5 3-.4 4v.3c-1 1.8-3.9 5.2-3.4 7.2l.4.5c-1.4.3-2.4 1.6-4 1.5-2.4 1.6-3.1 5.3-4.8 7.6.4-1.6 1-3 1.2-4.6l-.2.3c.3-1.6 1-2.5 2.2-3.6.3-1.7 1.5-3.6 2.3-5.2.4-2.4 2.5-6 3.7-8.2l.5-1.7c.7.3 1.2.7 2 .6Z"/>
  <path fill="#294818" d="M312.4 305.3c0 1.3.5 3-.4 4-1.8.5-3.7 5-5.9 5.8l.2-.1-.3-.1a41 41 0 0 1 6.4-9.6ZM309.9 303.4c.7.3 1.2.7 2 .6l-2 3.6-.4-.4v-2l.4-1.8ZM293.9 324.6c2-4.1 3.5-8.3 5.8-12.2-.8 4-2.7 6.3-3.7 9.8-.6.8-1.3 1.6-1.8 2.5l-.3-.1Z"/>
  <path fill="#425F23" d="M307.6 318.3c.3.1.2 0 .4.4-2.4 5.8-6.4 11-10 16l-.3.1c.1-1.1 1.6-3 2.3-4a71 71 0 0 0 3.2-5.5c.8-1.5 1.5-3.3 2.4-4.8a12 12 0 0 1 2-2.2Z"/>
  <path fill="#FDFDFD" d="M319.7 259.6c.8-.1 1.5-.2 2.3 0 2.3 2.5 11 26.3 13 31.2h-7l-2.3-6h-11.3c-.6 2-1.4 3.9-2.2 5.8h-6.7c2.6-7.1 6-14.2 9.1-21.1 1.3-2.9 2.4-6.1 4-8.9.3-.6.5-.7 1.1-1Z"/>
  <path fill="#104D46" d="M320.2 270.2c1.6 2.2 2.8 6.7 3.8 9.3h-3.6l-3.8-.3c1-3 2.4-6 3.6-9Z"/>
  <path fill="#FDFDFD" d="M234.9 259.4c6.9 0 13.8.4 20.7.6v5.2h-13.9l-.1 7.8q5.9 0 11.7.5l-.2 5c-3.7 0-8-.7-11.6.1v6.7l13.8.1-.1 5.4q-10.5-.4-21-.4c.1-10.3.6-20.6.7-31ZM304.6 259.9c2-.2 4-.1 6-.2v5.7l-9.6.3c.5 8.2.4 16.6.3 24.8-2.1 0-4.3.5-6.3-.3-.5-.6-.4-1-.5-1.8q.2-11.3.1-22.5c-2.9 0-5.8.3-8.6.4v-5.6l18.6-.8ZM166.8 257l7.5.1c-.6 8.4-.6 17-.9 25.4q5.8.1 11.5.5v5.5c-1 .6-16.2-.2-18.6-.3.4-10.4.2-20.8.5-31.2Z"/>
  <path fill="#E5A313" d="M173 222c2.5-.4 5.5-.2 8 .3 3.8.7 7.9 2.7 10.2 6-.7.8-1.4 1.5-2.3 2.1-3.1 2.4-6.7 2.2-10.4 1.7-3.6-.7-7-1.8-10.6-2.6-2.7-.6-5.4-1-8-1.4l.3-.5c3.2-3.8 8-5 12.8-5.6ZM312.3 220.8a25 25 0 0 1 6.3 0c3 .5 7.5 2 9.3 4.6 1.4 2 1 3.7.5 5.9l-9-.7c-3.5-.3-15.5-.7-17.9-2.7 0-.6 0-1 .5-1.5 2.4-3.6 6.2-5 10.3-5.6Z"/>
  <path fill="#FDFDFD" d="m188.7 258.5 6.6.1c-.2 10.2-.2 20.3-.6 30.5l-7-.1c.2-10.2.7-20.4 1-30.5Z"/>
  <path fill="#C1B061" d="M185.4 329.5c1.7-2.1 5.4-5.7 8.2-6 .9 0 1.4.3 2 .9 3.4 3.2 7.3 11.3 10 15.6-2.5-.4-15.7-2-17-2.9l-.5-.6v-.2l-1-2.7-1.7-4.1Z"/>
  <path fill="#BF9F80" d="M187 333.6c.8-.4 1.2-.8 2-.4.3.2.5.4.6.7.1.5 0 .8-.1 1.3l-1.4 1.1-1-2.7Z"/>
  <path fill="#B71E2B" d="M271.1 297.2c3.6.9 7.9.8 11.5 1 .8 0 1.6 0 2.2.6.4.4.5 1 .4 1.7-.3 1.3-1.8 2.5-2.9 3.1-1.5.8-3.4.4-5 1l-2.8-.4c-1.2 0-2.3-.1-3.5-.3l-.7-.5c-.8-.7-.8-3-.9-4 0-.3 0-.9.2-1.2.3-.7 1-.8 1.5-1Z"/>
  <path fill="#8E3236" d="m269.4 299.4 1 .7 1 .3c-.2.9-.3 1.6 0 2.4.8 1 2.4.5 3.1 1.4-1.2 0-2.3-.1-3.5-.3l-.7-.5c-.8-.7-.8-3-.9-4Z"/>
  <path fill="#CE4546" d="M269.4 299.4c0-.3 0-.9.2-1.2.3-.7 1-.8 1.5-1l.7 1 .5.4.4 1.4-.3.4h-1l-1-.3-1-.7ZM272.8 298.6a50 50 0 0 1 11.4 1.2c-.5.6-.8 1.1-1.6 1.3-2.2.7-7 .5-8.8-.7-.8-.5-.8-1-1-1.8Z"/>
  <path fill="#7FB44D" d="M255.4 312.6h.4c1.3 0 2.2.4 3 1.4 1.6 2 1.5 4.6 1.2 7h-3.2l-.4-.1c-1-.1-1.8-.2-2.6-.7a6.2 6.2 0 0 1-2.6-3.9 3 3 0 0 1 .6-2.5c1-1 2.3-1 3.6-1.2Z"/>
  <path fill="#FDFDFD" d="M323.3 250.2c2 .7 3.8 1.8 5.5 3l-9.3 3.5-5.3 1c2.8-2.9 6-5.2 9.1-7.5ZM285.8 201.3l6 .1c-1.4 1.6-3.1 2.8-4.9 4-1.8 1-3.3.9-5.3.7l4.2-4.8Z"/>
  <path fill="#BF9F80" d="M190 321.8c.6-.2 1-.3 1.5 0 .4 0 .7.3 1 .5 0 .6 0 .4-.3.8-.8 1-2.7 1.9-3.9 2.6-.5.6-1.2 1.1-1.9 1.6-.6.5-1 .6-1.8.5-.2-.5-.3-.6 0-1.3.5-1.9 3.7-3.7 5.4-4.7Z"/>
  <path fill="#CD8D38" d="M190 321.8c.6-.2 1-.3 1.5 0 .4 0 .7.3 1 .5 0 .6 0 .4-.3.8-.8 1-2.7 1.9-3.9 2.6.3-1.5 1.7-2.4 1.7-3.9Z"/>
</svg>
